<?xml version="1.0" encoding="UTF-8"?>
<!DOCTYPE svg PUBLIC "-//W3C//DTD SVG 1.1//EN" "http://www.w3.org/Graphics/SVG/1.1/DTD/svg11.dtd">
<svg xmlns="http://www.w3.org/2000/svg" version="1.1" width="720px" height="405px" style="shape-rendering:geometricPrecision; text-rendering:geometricPrecision; image-rendering:optimizeQuality; fill-rule:evenodd; clip-rule:evenodd" xmlns:xlink="http://www.w3.org/1999/xlink">
<g><path style="opacity:1" fill="#fefefe" d="M -0.5,-0.5 C 239.5,-0.5 479.5,-0.5 719.5,-0.5C 719.5,134.5 719.5,269.5 719.5,404.5C 479.5,404.5 239.5,404.5 -0.5,404.5C -0.5,269.5 -0.5,134.5 -0.5,-0.5 Z"/></g>
<g><path style="opacity:1" fill="#585857" d="M 352.5,43.5 C 377.001,42.6065 399.668,48.4398 420.5,61C 441.378,86.8559 460.211,114.023 477,142.5C 480.62,147.789 484.62,152.789 489,157.5C 498.8,176.552 500.134,196.218 493,216.5C 488.167,222.667 482.667,228.167 476.5,233C 471.657,234.864 466.657,236.197 461.5,237C 459.112,238.861 456.446,240.194 453.5,241C 438.298,241.445 423.298,243.278 408.5,246.5C 404.78,246.384 401.113,245.884 397.5,245C 396.54,243.581 395.707,242.081 395,240.5C 394.275,239.941 393.442,239.608 392.5,239.5C 376.025,244.79 359.525,244.79 343,239.5C 340.316,243.344 336.649,245.677 332,246.5C 326.667,245.167 321.333,245.167 316,246.5C 312.207,244.335 308.374,244.168 304.5,246C 291.51,247.033 278.51,247.366 265.5,247C 256.051,245.873 248.884,241.373 244,233.5C 236.713,213.85 235.713,193.85 241,173.5C 243.135,167.234 245.801,161.234 249,155.5C 249.667,154.5 249.667,153.5 249,152.5C 241.762,155.814 234.262,156.314 226.5,154C 220.564,152.802 215.064,150.635 210,147.5C 206.003,140.279 206.836,133.779 212.5,128C 218.847,126.902 224.847,127.902 230.5,131C 243.785,133.903 254.952,130.403 264,120.5C 269.199,107.768 275.199,95.435 282,83.5C 285.754,77.7419 290.254,72.5752 295.5,68C 305.673,62.0794 316.006,56.4127 326.5,51C 335.427,48.9258 344.094,46.4258 352.5,43.5 Z"/></g>
<g><path style="opacity:1" fill="#fafafa" d="M 394.5,54.5 C 392.563,58.7115 390.896,63.0449 389.5,67.5C 380.366,61.8341 371.532,62.1674 363,68.5C 355.305,83.2966 359.139,94.13 374.5,101C 378.109,101.701 381.442,102.868 384.5,104.5C 376.12,102.89 367.62,101.89 359,101.5C 351.62,101.636 344.453,102.97 337.5,105.5C 332.149,102.158 326.482,99.3243 320.5,97C 316.551,95.8157 312.551,95.4823 308.5,96C 305.236,101.111 302.736,106.611 301,112.5C 299.775,122.107 299.108,131.774 299,141.5C 292.805,153.919 288.305,166.919 285.5,180.5C 277.549,181.935 269.549,183.102 261.5,184C 258.672,186.851 259.338,188.351 263.5,188.5C 271.097,187.018 278.764,186.352 286.5,186.5C 286.98,189.685 286.314,192.519 284.5,195C 280.58,196.313 276.58,197.313 272.5,198C 270.032,199.216 268.032,200.883 266.5,203C 266.734,204.732 267.734,205.566 269.5,205.5C 275.337,203.208 281.337,201.541 287.5,200.5C 287.71,207.753 290.71,213.586 296.5,218C 301.393,221.891 306.56,225.391 312,228.5C 311.865,230.425 311.698,232.425 311.5,234.5C 316.749,233.016 322.082,232.516 327.5,233C 330.576,233.911 332.909,235.744 334.5,238.5C 333.271,239.281 331.938,239.781 330.5,240C 325.177,240.499 319.844,240.666 314.5,240.5C 314.915,238.052 313.915,236.719 311.5,236.5C 305.7,239.812 299.367,241.645 292.5,242C 284.089,242.905 275.755,242.572 267.5,241C 258.4,234.554 254.4,225.721 255.5,214.5C 251.106,214.054 249.44,216.054 250.5,220.5C 250.441,226.774 252.441,232.274 256.5,237C 254.097,237.63 252.263,236.797 251,234.5C 241.721,215.586 240.054,195.919 246,175.5C 250.182,165.141 254.349,154.808 258.5,144.5C 273.829,145 281.995,137.667 283,122.5C 283.916,112.518 284.416,102.518 284.5,92.5C 286.975,84.8408 291.308,78.3408 297.5,73C 307.468,67.3473 317.468,61.6807 327.5,56C 343.794,50.9513 360.461,48.9513 377.5,50C 383.142,51.6604 388.809,53.1604 394.5,54.5 Z"/></g>
<g><path style="opacity:1" fill="#bfaea3" d="M 394.5,54.5 C 401.928,57.7135 409.262,61.2135 416.5,65C 420.774,69.072 424.44,73.572 427.5,78.5C 424.597,82.6301 421.93,86.9634 419.5,91.5C 406.861,93.3242 395.194,97.6576 384.5,104.5C 381.442,102.868 378.109,101.701 374.5,101C 359.139,94.13 355.305,83.2966 363,68.5C 371.532,62.1674 380.366,61.8341 389.5,67.5C 390.896,63.0449 392.563,58.7115 394.5,54.5 Z"/></g>
<g><path style="opacity:1" fill="#f9f9f9" d="M 427.5,78.5 C 431.981,84.0972 436.481,89.7639 441,95.5C 448.825,109.653 457.825,122.986 468,135.5C 472.102,144.929 477.769,153.262 485,160.5C 493.789,178.365 494.789,196.699 488,215.5C 482.969,220.93 477.136,225.264 470.5,228.5C 468.568,227.48 466.568,227.313 464.5,228C 461.553,230.783 458.22,232.95 454.5,234.5C 452.603,229.313 450.77,223.979 449,218.5C 445.911,215.281 443.078,211.948 440.5,208.5C 441.295,205.577 442.628,202.91 444.5,200.5C 455.146,199.501 465.813,199.168 476.5,199.5C 476.67,198.178 476.337,197.011 475.5,196C 466.089,194.491 456.756,193.158 447.5,192C 450.025,189.709 453.025,188.376 456.5,188C 462.435,186.761 468.435,186.261 474.5,186.5C 474.5,185.167 474.5,183.833 474.5,182.5C 471.011,182.137 467.511,181.804 464,181.5C 459.177,182.275 454.343,182.942 449.5,183.5C 449.861,176.027 449.028,168.694 447,161.5C 442.847,149.874 438.014,138.541 432.5,127.5C 433.866,118.148 433.699,108.814 432,99.5C 430.5,97.3333 429,95.1667 427.5,93C 424.746,92.7276 422.079,92.2276 419.5,91.5C 421.93,86.9634 424.597,82.6301 427.5,78.5 Z"/></g>
<g><path style="opacity:1" fill="#bcada2" d="M 284.5,92.5 C 284.416,102.518 283.916,112.518 283,122.5C 281.995,137.667 273.829,145 258.5,144.5C 266.093,126.647 274.76,109.314 284.5,92.5 Z"/></g>
<g><path style="opacity:1" fill="#fbfbfb" d="M 298.5,212.5 C 298.56,211.957 298.893,211.624 299.5,211.5C 311.967,216.792 324.301,216.792 336.5,211.5C 338.591,211.318 340.591,211.652 342.5,212.5C 343.855,211.812 344.855,210.812 345.5,209.5C 380.293,184.894 392.293,151.894 381.5,110.5C 392.35,105.714 403.35,101.214 414.5,97C 420.962,95.1351 425.462,97.3017 428,103.5C 428.464,112.192 428.464,120.858 428,129.5C 433.782,141.513 438.782,153.846 443,166.5C 443.667,173.5 443.667,180.5 443,187.5C 436.563,189.769 430.73,193.102 425.5,197.5C 424.548,199.045 424.215,200.712 424.5,202.5C 428.548,202.605 432.548,202.272 436.5,201.5C 434.88,205.642 432.214,209.142 428.5,212C 423.956,213.882 419.956,216.549 416.5,220C 407.503,223.006 399.503,227.673 392.5,234C 370.325,241.888 349.325,239.555 329.5,227C 317.312,225.904 306.979,221.07 298.5,212.5 Z"/></g>
<g><path style="opacity:1" fill="#beada2" d="M 381.5,110.5 C 392.293,151.894 380.293,184.894 345.5,209.5C 345.67,208.178 345.337,207.011 344.5,206C 337.96,203.622 331.294,203.122 324.5,204.5C 323.233,206.371 323.233,208.204 324.5,210C 328.585,210.233 332.585,210.733 336.5,211.5C 324.301,216.792 311.967,216.792 299.5,211.5C 298.893,211.624 298.56,211.957 298.5,212.5C 295.367,208.802 293.367,204.469 292.5,199.5C 292.709,198.914 293.043,198.414 293.5,198C 301.353,197.284 309.186,197.451 317,198.5C 321.839,197.999 322.673,195.832 319.5,192C 310.661,187.331 301.327,184.165 291.5,182.5C 291.765,178.147 292.265,173.813 293,169.5C 297.852,157.801 302.686,146.135 307.5,134.5C 306.5,134.5 305.5,134.5 304.5,134.5C 304.107,123.34 306.107,112.673 310.5,102.5C 313.446,101.345 316.446,101.179 319.5,102C 325.606,105.118 331.439,108.618 337,112.5C 343.345,108.275 350.345,106.275 358,106.5C 365.964,107.223 373.797,108.557 381.5,110.5 Z"/></g>
<g><path style="opacity:1" fill="#f4f4f4" d="M 236.5,137.5 C 237.919,138.451 239.585,138.784 241.5,138.5C 241.351,139.552 241.517,140.552 242,141.5C 244.335,143.4 246.502,145.4 248.5,147.5C 237.295,149.263 226.295,148.429 215.5,145C 211.885,141.341 211.552,137.341 214.5,133C 219.573,132.688 224.24,134.022 228.5,137C 231.146,137.497 233.813,137.664 236.5,137.5 Z"/></g>
<g><path style="opacity:1" fill="#b9aba1" d="M 248.5,147.5 C 246.502,145.4 244.335,143.4 242,141.5C 241.517,140.552 241.351,139.552 241.5,138.5C 239.585,138.784 237.919,138.451 236.5,137.5C 242.852,137.745 248.852,136.412 254.5,133.5C 255.819,139.532 253.819,144.198 248.5,147.5 Z"/></g>
<g><path style="opacity:1" fill="#b4a59a" d="M 291.5,188.5 C 308.782,190.543 308.782,191.876 291.5,192.5C 291.5,191.167 291.5,189.833 291.5,188.5 Z"/></g>
<g><path style="opacity:1" fill="#565453" d="M 345.5,209.5 C 344.855,210.812 343.855,211.812 342.5,212.5C 340.591,211.652 338.591,211.318 336.5,211.5C 332.585,210.733 328.585,210.233 324.5,210C 323.233,208.204 323.233,206.371 324.5,204.5C 331.294,203.122 337.96,203.622 344.5,206C 345.337,207.011 345.67,208.178 345.5,209.5 Z"/></g>
<g><path style="opacity:1" fill="#585858" d="M 401.5,204.5 C 405.846,204.334 410.179,204.501 414.5,205C 415.576,206.726 415.743,208.559 415,210.5C 407.973,211.008 401.14,212.174 394.5,214C 393.446,212.612 393.28,211.112 394,209.5C 396.479,207.686 398.979,206.019 401.5,204.5 Z"/></g>
<g><path style="opacity:1" fill="#bcaba2" d="M 440.5,208.5 C 443.078,211.948 445.911,215.281 449,218.5C 450.77,223.979 452.603,229.313 454.5,234.5C 451.512,236.14 448.179,236.974 444.5,237C 437.842,237.5 431.175,237.666 424.5,237.5C 425.297,232.323 423.964,227.823 420.5,224C 427.042,218.618 433.709,213.452 440.5,208.5 Z"/></g>
<g><path style="opacity:1" fill="#5c5c5c" d="M 369.5,218.5 C 372.518,218.335 375.518,218.502 378.5,219C 379.833,220.333 379.833,221.667 378.5,223C 372.492,227.281 369.492,225.781 369.5,218.5 Z"/></g>
<g><path style="opacity:1" fill="#b6a79c" d="M 410.5,228.5 C 417.461,228.201 420.628,231.535 420,238.5C 414.49,241.081 408.657,242.081 402.5,241.5C 403.413,235.993 406.079,231.66 410.5,228.5 Z"/></g>
<g><path style="opacity:1" fill="#0d0d0d" d="M 342.5,287.5 C 346.802,289.478 349.802,292.811 351.5,297.5C 349.417,298.959 347.25,300.292 345,301.5C 342.888,297.722 340.388,294.222 337.5,291C 339.233,289.811 340.9,288.644 342.5,287.5 Z"/></g>
<g><path style="opacity:1" fill="#060606" d="M 447.5,289.5 C 458.931,292.704 470.598,294.037 482.5,293.5C 482.495,297.534 482.162,301.534 481.5,305.5C 469.344,305.851 457.344,304.684 445.5,302C 444.978,301.439 444.645,300.772 444.5,300C 445.426,296.459 446.426,292.959 447.5,289.5 Z"/></g>
<g><path style="opacity:1" fill="#050505" d="M 158.5,309.5 C 155.375,308.521 152.042,308.187 148.5,308.5C 148.5,304.833 148.5,301.167 148.5,297.5C 153.103,298.383 157.77,298.717 162.5,298.5C 162.5,295.833 162.5,293.167 162.5,290.5C 166.833,290.5 171.167,290.5 175.5,290.5C 175.5,292.833 175.5,295.167 175.5,297.5C 184.258,297.282 192.925,296.282 201.5,294.5C 201.824,298.555 201.491,302.555 200.5,306.5C 196.697,307.008 193.03,307.842 189.5,309C 191.677,310.202 194.011,310.702 196.5,310.5C 196.579,311.93 196.246,313.264 195.5,314.5C 207.973,320.415 211.473,329.748 206,342.5C 199.468,351.62 190.634,355.62 179.5,354.5C 178.974,351.427 177.474,349.094 175,347.5C 169.008,352.409 162.175,354.243 154.5,353C 150.333,351.5 147.5,348.667 146,344.5C 143.824,330.849 148.991,321.183 161.5,315.5C 162.466,313.604 162.799,311.604 162.5,309.5C 161.167,309.5 159.833,309.5 158.5,309.5 Z"/></g>
<g><path style="opacity:1" fill="#050505" d="M 226.5,290.5 C 230.833,290.5 235.167,290.5 239.5,290.5C 238.183,294.757 237.683,299.09 238,303.5C 247.689,291.379 258.023,290.712 269,301.5C 272.759,307.112 274.259,313.279 273.5,320C 274.559,336.231 267.559,347.231 252.5,353C 247.959,354.672 243.293,355.839 238.5,356.5C 236.561,352.123 234.228,347.956 231.5,344C 240.63,343.735 248.797,340.902 256,335.5C 260.728,327.684 261.728,319.351 259,310.5C 256.28,306.356 252.78,305.523 248.5,308C 240.468,314.589 236.802,323.089 237.5,333.5C 233.167,333.5 228.833,333.5 224.5,333.5C 224.093,319.096 224.76,304.763 226.5,290.5 Z"/></g>
<g><path style="opacity:1" fill="#060606" d="M 303.5,290.5 C 307.798,291.2 312.131,291.533 316.5,291.5C 315.833,295.833 315.167,300.167 314.5,304.5C 322.831,303.579 328.664,306.913 332,314.5C 333.324,325.738 332.324,336.738 329,347.5C 326.346,352.837 322.013,355.17 316,354.5C 312.814,354.256 309.647,353.923 306.5,353.5C 306.867,349.033 306.367,344.7 305,340.5C 302.788,345.631 300.288,350.631 297.5,355.5C 293.66,353.079 289.66,350.912 285.5,349C 291.883,339.352 296.217,328.852 298.5,317.5C 295.041,317.531 291.708,318.198 288.5,319.5C 287.508,315.217 287.174,310.884 287.5,306.5C 291.902,306.772 296.235,306.439 300.5,305.5C 302.295,300.654 303.295,295.654 303.5,290.5 Z"/></g>
<g><path style="opacity:1" fill="#080808" d="M 385.5,289.5 C 387.167,289.5 388.833,289.5 390.5,289.5C 390.96,296.592 391.96,303.592 393.5,310.5C 400.776,308.297 408.109,306.297 415.5,304.5C 416.29,308.206 417.29,311.872 418.5,315.5C 418.167,316.167 417.833,316.833 417.5,317.5C 405.674,319.831 394.341,323.664 383.5,329C 377.849,333.716 378.182,337.716 384.5,341C 395.953,341.688 407.287,340.854 418.5,338.5C 418.998,343.152 419.331,347.819 419.5,352.5C 407.882,354.103 396.216,354.603 384.5,354C 366.778,350.721 361.611,340.888 369,324.5C 373.172,320.856 377.339,317.356 381.5,314C 379.754,306.848 378.087,299.682 376.5,292.5C 379.425,291.047 382.425,290.047 385.5,289.5 Z"/></g>
<g><path style="opacity:1" fill="#101010" d="M 333.5,291.5 C 334.496,291.414 335.329,291.748 336,292.5C 338.29,295.58 340.457,298.747 342.5,302C 340.557,303.555 338.39,304.722 336,305.5C 332.92,302.866 330.42,299.7 328.5,296C 329.761,294.038 331.428,292.538 333.5,291.5 Z"/></g>
<g><path style="opacity:1" fill="#070707" d="M 528.5,292.5 C 533.833,292.5 539.167,292.5 544.5,292.5C 543.907,306.504 543.24,320.504 542.5,334.5C 538.5,334.5 534.5,334.5 530.5,334.5C 529.418,320.522 528.751,306.522 528.5,292.5 Z"/></g>
<g><path style="opacity:1" fill="#080808" d="M 342.5,304.5 C 344.592,304.561 346.092,305.561 347,307.5C 350.519,314.225 353.353,321.225 355.5,328.5C 355.392,329.442 355.059,330.275 354.5,331C 351.285,332.774 347.952,334.274 344.5,335.5C 341.616,326.518 337.949,317.852 333.5,309.5C 336.714,308.063 339.714,306.397 342.5,304.5 Z"/></g>
<g><path style="opacity:1" fill="#404040" d="M 148.5,297.5 C 148.5,301.167 148.5,304.833 148.5,308.5C 152.042,308.187 155.375,308.521 158.5,309.5C 154.833,309.5 151.167,309.5 147.5,309.5C 147.183,305.298 147.517,301.298 148.5,297.5 Z"/></g>
<g><path style="opacity:1" fill="#ececec" d="M 183.5,311.5 C 179.988,312.055 176.988,311.388 174.5,309.5C 177.64,308.359 180.973,308.192 184.5,309C 183.748,309.671 183.414,310.504 183.5,311.5 Z"/></g>
<g><path style="opacity:1" fill="#050505" d="M 456.5,309.5 C 463.508,309.334 470.508,309.5 477.5,310C 489.571,313.294 494.071,321.128 491,333.5C 486.067,345.233 477.234,352.066 464.5,354C 460.23,355.075 455.897,355.575 451.5,355.5C 450.965,351.563 449.632,347.896 447.5,344.5C 456.166,343.084 464.499,340.584 472.5,337C 476.966,333.901 478.466,329.735 477,324.5C 474.173,322.039 470.84,321.039 467,321.5C 457.317,322.23 447.817,323.897 438.5,326.5C 437.963,321.814 437.296,317.147 436.5,312.5C 443.392,312.127 450.058,311.127 456.5,309.5 Z"/></g>
<g><path style="opacity:1" fill="#8c8c8c" d="M 174.5,309.5 C 176.988,311.388 179.988,312.055 183.5,311.5C 180.375,312.479 177.042,312.813 173.5,312.5C 173.263,311.209 173.596,310.209 174.5,309.5 Z"/></g>
<g><path style="opacity:1" fill="#f4f4f4" d="M 311.5,316.5 C 317.755,314.798 320.755,317.131 320.5,323.5C 320.074,328.58 319.24,333.58 318,338.5C 317.424,340.852 315.924,341.852 313.5,341.5C 310.3,341.384 307.633,340.217 305.5,338C 308.257,331.002 310.257,323.836 311.5,316.5 Z"/></g>
<g><path style="opacity:1" fill="#e1e1e1" d="M 173.5,322.5 C 175.604,322.201 177.604,322.534 179.5,323.5C 174.608,334.133 172.608,333.8 173.5,322.5 Z"/></g>
<g><path style="opacity:1" fill="#efefef" d="M 190.5,325.5 C 195.662,327.697 196.829,331.364 194,336.5C 190.509,340.884 186.009,342.718 180.5,342C 185.238,337.359 188.571,331.859 190.5,325.5 Z"/></g>
<g><path style="opacity:1" fill="#f1f1f1" d="M 161.5,328.5 C 162.322,331.665 162.989,334.998 163.5,338.5C 162.372,341.264 160.538,341.931 158,340.5C 156.745,335.738 157.912,331.738 161.5,328.5 Z"/></g>
<g><path style="opacity:1" fill="#717171" d="M 543.5,352.5 C 543.5,348.167 543.5,343.833 543.5,339.5C 538.833,339.5 534.167,339.5 529.5,339.5C 529.5,343.833 529.5,348.167 529.5,352.5C 528.514,348.03 528.181,343.363 528.5,338.5C 533.833,338.5 539.167,338.5 544.5,338.5C 544.819,343.363 544.486,348.03 543.5,352.5 Z"/></g>
<g><path style="opacity:1" fill="#0a0a0a" d="M 543.5,352.5 C 538.833,353.833 534.167,353.833 529.5,352.5C 529.5,348.167 529.5,343.833 529.5,339.5C 534.167,339.5 538.833,339.5 543.5,339.5C 543.5,343.833 543.5,348.167 543.5,352.5 Z"/></g>
</svg>
