<svg width="2379" height="894" xmlns="http://www.w3.org/2000/svg" xmlns:xlink="http://www.w3.org/1999/xlink" xml:space="preserve" overflow="hidden"><g transform="translate(-1104 -1301)"><g><rect x="1177" y="1317" width="2292" height="863" fill="#EEEDED" fill-opacity="1"/><rect x="1120" y="1317" width="94.0002" height="863" fill="#F4B442" fill-opacity="1"/><path d="M3251.26 1317 3469 1317 3469 1534.15 3462.4 1711C3461.98 1678.39 3250.42 1440.08 3250 1407.47 3250.42 1377.31 3250.84 1347.16 3251.26 1317Z" fill="#F4B442" fill-rule="evenodd" fill-opacity="1"/><path d="M1.25721 0 219 0 219 217.148 212.396 394C211.977 361.389 0.418949 123.078 0 90.4671 0.418949 60.3114 0.83826 30.1557 1.25721 0Z" fill="#F4B442" fill-rule="evenodd" fill-opacity="1" transform="matrix(1 0 0 -1 3250 2180)"/><path d="M1120 1323.58C1120 1319.95 1122.95 1317 1126.58 1317L3462.42 1317C3466.05 1317 3469 1319.95 3469 1323.58L3469 2173.42C3469 2177.05 3466.05 2180 3462.42 2180L1126.58 2180C1122.95 2180 1120 2177.05 1120 2173.42Z" stroke="#646565" stroke-width="27.5" stroke-linecap="butt" stroke-linejoin="miter" stroke-miterlimit="8" stroke-opacity="1" fill="none" fill-rule="evenodd"/></g></g></svg>